<svg width="26" height="26" viewBox="0 0 26 26" fill="none" xmlns="http://www.w3.org/2000/svg">
    <path d="M12.9999 21.8399C8.11191 21.8399 4.15991 17.8879 4.15991 12.9999C4.15991 8.11191 8.11191 4.15991 12.9999 4.15991C17.8879 4.15991 21.8399 8.11191 21.8399 12.9999C21.8399 17.8879 17.8879 21.8399 12.9999 21.8399ZM12.9999 5.19991C8.68391 5.19991 5.19991 8.68391 5.19991 12.9999C5.19991 17.3159 8.68391 20.7999 12.9999 20.7999C17.3159 20.7999 20.7999 17.3159 20.7999 12.9999C20.7999 8.68391 17.3159 5.19991 12.9999 5.19991Z" fill="#3C7EFF"/>
    <path d="M12.844 18.0441L12.116 17.3161L16.432 13.0001L12.116 8.68406L12.844 7.95605L17.888 13.0001L12.844 18.0441Z" fill="#3C7EFF"/>
    <path d="M8.32007 12.48H17.1601V13.52H8.32007V12.48Z" fill="#3C7EFF"/>
</svg>
