<svg width="50" height="50" viewBox="0 0 50 50" fill="none" xmlns="http://www.w3.org/2000/svg">
    <path d="M10.4165 16.6667C9.18037 16.6667 7.972 16.3001 6.94419 15.6133C5.91639 14.9266 5.11531 13.9505 4.64226 12.8084C4.16921 11.6664 4.04544 10.4097 4.2866 9.19734C4.52776 7.98496 5.12301 6.87132 5.99709 5.99724C6.87117 5.12316 7.98481 4.52791 9.19719 4.28675C10.4096 4.04559 11.6662 4.16936 12.8083 4.64241C13.9503 5.11546 14.9264 5.91654 15.6132 6.94435C16.2999 7.97215 16.6665 9.18053 16.6665 10.4167C16.6649 12.0738 16.0058 13.6625 14.8341 14.8342C13.6624 16.006 12.0736 16.665 10.4165 16.6667ZM10.4165 8.33333C10.0045 8.33333 9.60167 8.45551 9.25907 8.68443C8.91647 8.91335 8.64944 9.23872 8.49176 9.6194C8.33407 10.0001 8.29282 10.419 8.3732 10.8231C8.45359 11.2272 8.65201 11.5984 8.94337 11.8898C9.23473 12.1812 9.60594 12.3796 10.0101 12.46C10.4142 12.5403 10.8331 12.4991 11.2138 12.3414C11.5944 12.1837 11.9198 11.9167 12.1487 11.5741C12.3777 11.2315 12.4998 10.8287 12.4998 10.4167C12.4993 9.86429 12.2796 9.33471 11.889 8.94413C11.4985 8.55355 10.9689 8.33388 10.4165 8.33333ZM39.5832 16.6667C38.347 16.6667 37.1387 16.3001 36.1109 15.6133C35.0831 14.9266 34.282 13.9505 33.8089 12.8084C33.3359 11.6664 33.2121 10.4097 33.4533 9.19734C33.6944 7.98496 34.2897 6.87132 35.1638 5.99724C36.0378 5.12316 37.1515 4.52791 38.3639 4.28675C39.5762 4.04559 40.8329 4.16936 41.9749 4.64241C43.117 5.11546 44.0931 5.91654 44.7799 6.94435C45.4666 7.97215 45.8332 9.18053 45.8332 10.4167C45.8315 12.0738 45.1725 13.6625 44.0008 14.8342C42.829 16.006 41.2403 16.665 39.5832 16.6667ZM39.5832 8.33333C39.1711 8.33333 38.7683 8.45551 38.4257 8.68443C38.0831 8.91335 37.8161 9.23872 37.6584 9.6194C37.5007 10.0001 37.4595 10.419 37.5399 10.8231C37.6203 11.2272 37.8187 11.5984 38.11 11.8898C38.4014 12.1812 38.7726 12.3796 39.1767 12.46C39.5809 12.5403 39.9997 12.4991 40.3804 12.3414C40.7611 12.1837 41.0865 11.9167 41.3154 11.5741C41.5443 11.2315 41.6665 10.8287 41.6665 10.4167C41.666 9.86429 41.4463 9.33471 41.0557 8.94413C40.6651 8.55355 40.1355 8.33388 39.5832 8.33333ZM10.4165 45.8333C9.18037 45.8333 7.972 45.4668 6.94419 44.78C5.91639 44.0933 5.11531 43.1171 4.64226 41.9751C4.16921 40.8331 4.04544 39.5764 4.2866 38.364C4.52776 37.1516 5.12301 36.038 5.99709 35.1639C6.87117 34.2898 7.98481 33.6946 9.19719 33.4534C10.4096 33.2123 11.6662 33.336 12.8083 33.8091C13.9503 34.2821 14.9264 35.0832 15.6132 36.111C16.2999 37.1388 16.6665 38.3472 16.6665 39.5833C16.6649 41.2404 16.0058 42.8292 14.8341 44.0009C13.6624 45.1727 12.0736 45.8317 10.4165 45.8333ZM10.4165 37.5C10.0045 37.5 9.60167 37.6222 9.25907 37.8511C8.91647 38.08 8.64944 38.4054 8.49176 38.7861C8.33407 39.1667 8.29282 39.5856 8.3732 39.9898C8.45359 40.3939 8.65201 40.7651 8.94337 41.0565C9.23473 41.3478 9.60594 41.5462 10.0101 41.6266C10.4142 41.707 10.8331 41.6658 11.2138 41.5081C11.5944 41.3504 11.9198 41.0834 12.1487 40.7408C12.3777 40.3982 12.4998 39.9954 12.4998 39.5833C12.4993 39.031 12.2796 38.5014 11.889 38.1108C11.4985 37.7202 10.9689 37.5005 10.4165 37.5ZM39.5832 45.8333C38.347 45.8333 37.1387 45.4668 36.1109 44.78C35.0831 44.0933 34.282 43.1171 33.8089 41.9751C33.3359 40.8331 33.2121 39.5764 33.4533 38.364C33.6944 37.1516 34.2897 36.038 35.1638 35.1639C36.0378 34.2898 37.1515 33.6946 38.3639 33.4534C39.5762 33.2123 40.8329 33.336 41.9749 33.8091C43.117 34.2821 44.0931 35.0832 44.7799 36.111C45.4666 37.1388 45.8332 38.3472 45.8332 39.5833C45.8315 41.2404 45.1725 42.8292 44.0008 44.0009C42.829 45.1727 41.2403 45.8317 39.5832 45.8333ZM39.5832 37.5C39.1711 37.5 38.7683 37.6222 38.4257 37.8511C38.0831 38.08 37.8161 38.4054 37.6584 38.7861C37.5007 39.1667 37.4595 39.5856 37.5399 39.9898C37.6203 40.3939 37.8187 40.7651 38.11 41.0565C38.4014 41.3478 38.7726 41.5462 39.1767 41.6266C39.5809 41.707 39.9997 41.6658 40.3804 41.5081C40.7611 41.3504 41.0865 41.0834 41.3154 40.7408C41.5443 40.3982 41.6665 39.9954 41.6665 39.5833C41.666 39.031 41.4463 38.5014 41.0557 38.1108C40.6651 37.7202 40.1355 37.5005 39.5832 37.5Z" fill="#3C7EFF"/>
    <path opacity="0.5" d="M33.7168 41.6667C33.2049 40.325 33.2049 38.8417 33.7168 37.5H16.2835C16.7953 38.8418 16.7953 40.3249 16.2835 41.6667H33.7168ZM39.5835 16.6667C38.8722 16.6598 38.1674 16.5301 37.5002 16.2833V33.7167C38.8419 33.2049 40.3251 33.2049 41.6668 33.7167V16.2833C40.9996 16.5301 40.2948 16.6598 39.5835 16.6667ZM16.2835 8.33334C16.5303 9.00053 16.66 9.70534 16.6668 10.4167C16.66 11.128 16.5303 11.8328 16.2835 12.5H33.7168C33.47 11.8328 33.3404 11.128 33.3335 10.4167C33.3404 9.70534 33.47 9.00053 33.7168 8.33334H16.2835ZM10.4168 33.3333C11.1282 33.3402 11.833 33.4699 12.5002 33.7167V16.2833C11.833 16.5301 11.1282 16.6598 10.4168 16.6667C9.70549 16.6598 9.00069 16.5301 8.3335 16.2833V33.7167C9.00069 33.4699 9.70549 33.3402 10.4168 33.3333Z" fill="#3C7EFF"/>
</svg>
