<svg width="50" height="50" viewBox="0 0 50 50" fill="none" xmlns="http://www.w3.org/2000/svg">
    <path d="M22.5439 4.17291L22.7522 4.20832L40.4606 8.37499C40.7679 8.44689 41.0462 8.61017 41.259 8.84334C41.4717 9.07651 41.6088 9.36863 41.6522 9.68124L41.6668 9.89582V40.1042C41.667 40.4198 41.5715 40.7281 41.393 40.9884C41.2145 41.2487 40.9613 41.4489 40.6668 41.5625L40.4627 41.625L22.7543 45.7917C22.5425 45.8416 22.3225 45.8467 22.1085 45.8066C21.8946 45.7665 21.6913 45.6822 21.5119 45.559C21.3324 45.4359 21.1806 45.2766 21.0663 45.0913C20.952 44.9061 20.8777 44.699 20.8481 44.4833L20.8335 44.2708V5.72916C20.8332 5.32432 20.9901 4.93518 21.2711 4.64372C21.552 4.35226 21.9352 4.18123 22.3397 4.16666L22.5439 4.17291ZM23.9585 7.70207V42.2979L38.5418 38.8667V11.1333L23.9585 7.70207ZM18.7502 8.33332V11.4583H11.4585V38.5417H18.7502V41.6667H9.896C9.51842 41.6666 9.15362 41.5299 8.86906 41.2817C8.5845 41.0336 8.39943 40.6907 8.34808 40.3167L8.3335 40.1042V9.89582C8.33351 9.51824 8.47025 9.15344 8.71843 8.86888C8.9666 8.58432 9.30943 8.39926 9.6835 8.34791L9.896 8.33332H18.7502ZM29.1668 22.9167C29.7194 22.9167 30.2493 23.1362 30.64 23.5268C31.0307 23.9176 31.2502 24.4475 31.2502 25C31.2502 25.5525 31.0307 26.0824 30.64 26.4731C30.2493 26.8638 29.7194 27.0833 29.1668 27.0833C28.6143 27.0833 28.0844 26.8638 27.6937 26.4731C27.303 26.0824 27.0835 25.5525 27.0835 25C27.0835 24.4475 27.303 23.9176 27.6937 23.5268C28.0844 23.1362 28.6143 22.9167 29.1668 22.9167Z" fill="#3C7EFF"/>
</svg>
