<svg width="22" height="22" viewBox="0 0 22 22" fill="none" xmlns="http://www.w3.org/2000/svg">
<path d="M4.58325 7.33333C4.03935 7.33333 3.50767 7.17205 3.05544 6.86987C2.6032 6.5677 2.25073 6.13821 2.04258 5.63571C1.83444 5.13322 1.77998 4.58028 1.88609 4.04683C1.9922 3.51339 2.25412 3.02338 2.63871 2.63879C3.0233 2.2542 3.51331 1.99228 4.04675 1.88617C4.5802 1.78006 5.13314 1.83452 5.63563 2.04266C6.13813 2.25081 6.56762 2.60328 6.86979 3.05552C7.17197 3.50775 7.33325 4.03943 7.33325 4.58333C7.33252 5.31246 7.04256 6.01151 6.52699 6.52707C6.01143 7.04264 5.31238 7.3326 4.58325 7.33333ZM4.58325 3.66667C4.40195 3.66667 4.22473 3.72043 4.07398 3.82115C3.92324 3.92188 3.80574 4.06504 3.73636 4.23254C3.66698 4.40004 3.64883 4.58435 3.6842 4.76217C3.71957 4.93998 3.80687 5.10332 3.93507 5.23151C4.06327 5.35971 4.2266 5.44702 4.40442 5.48239C4.58224 5.51776 4.76655 5.4996 4.93405 5.43022C5.10155 5.36084 5.24471 5.24335 5.34543 5.09261C5.44616 4.94186 5.49992 4.76463 5.49992 4.58333C5.49968 4.34029 5.40302 4.10728 5.23117 3.93542C5.05931 3.76356 4.82629 3.66691 4.58325 3.66667ZM17.4166 7.33333C16.8727 7.33333 16.341 7.17205 15.8888 6.86987C15.4365 6.5677 15.0841 6.13821 14.8759 5.63571C14.6678 5.13322 14.6133 4.58028 14.7194 4.04683C14.8255 3.51339 15.0874 3.02338 15.472 2.63879C15.8566 2.2542 16.3466 1.99228 16.8801 1.88617C17.4135 1.78006 17.9665 1.83452 18.469 2.04266C18.9715 2.25081 19.401 2.60328 19.7031 3.05552C20.0053 3.50775 20.1666 4.03943 20.1666 4.58333C20.1659 5.31246 19.8759 6.01151 19.3603 6.52707C18.8448 7.04264 18.1457 7.3326 17.4166 7.33333ZM17.4166 3.66667C17.2353 3.66667 17.0581 3.72043 16.9073 3.82115C16.7566 3.92188 16.6391 4.06504 16.5697 4.23254C16.5003 4.40004 16.4822 4.58435 16.5175 4.76217C16.5529 4.93998 16.6402 5.10332 16.7684 5.23151C16.8966 5.35971 17.0599 5.44702 17.2378 5.48239C17.4156 5.51776 17.5999 5.4996 17.7674 5.43022C17.9349 5.36084 18.078 5.24335 18.1788 5.09261C18.2795 4.94186 18.3333 4.76463 18.3333 4.58333C18.333 4.34029 18.2364 4.10728 18.0645 3.93542C17.8926 3.76356 17.6596 3.66691 17.4166 3.66667ZM4.58325 20.1667C4.03935 20.1667 3.50767 20.0054 3.05544 19.7032C2.6032 19.401 2.25073 18.9715 2.04258 18.469C1.83444 17.9665 1.77998 17.4136 1.88609 16.8802C1.9922 16.3467 2.25412 15.8567 2.63871 15.4721C3.0233 15.0875 3.51331 14.8256 4.04675 14.7195C4.5802 14.6134 5.13314 14.6679 5.63563 14.876C6.13813 15.0841 6.56762 15.4366 6.86979 15.8888C7.17197 16.3411 7.33325 16.8728 7.33325 17.4167C7.33252 18.1458 7.04256 18.8448 6.52699 19.3604C6.01143 19.876 5.31238 20.1659 4.58325 20.1667ZM4.58325 16.5C4.40195 16.5 4.22473 16.5538 4.07398 16.6545C3.92324 16.7552 3.80574 16.8984 3.73636 17.0659C3.66698 17.2334 3.64883 17.4177 3.6842 17.5955C3.71957 17.7733 3.80687 17.9366 3.93507 18.0648C4.06327 18.193 4.2266 18.2803 4.40442 18.3157C4.58224 18.3511 4.76655 18.3329 4.93405 18.2636C5.10155 18.1942 5.24471 18.0767 5.34543 17.9259C5.44616 17.7752 5.49992 17.598 5.49992 17.4167C5.49968 17.1736 5.40302 16.9406 5.23117 16.7688C5.05931 16.5969 4.82629 16.5002 4.58325 16.5ZM17.4166 20.1667C16.8727 20.1667 16.341 20.0054 15.8888 19.7032C15.4365 19.401 15.0841 18.9715 14.8759 18.469C14.6678 17.9665 14.6133 17.4136 14.7194 16.8802C14.8255 16.3467 15.0874 15.8567 15.472 15.4721C15.8566 15.0875 16.3466 14.8256 16.8801 14.7195C17.4135 14.6134 17.9665 14.6679 18.469 14.876C18.9715 15.0841 19.401 15.4366 19.7031 15.8888C20.0053 16.3411 20.1666 16.8728 20.1666 17.4167C20.1659 18.1458 19.8759 18.8448 19.3603 19.3604C18.8448 19.876 18.1457 20.1659 17.4166 20.1667ZM17.4166 16.5C17.2353 16.5 17.0581 16.5538 16.9073 16.6545C16.7566 16.7552 16.6391 16.8984 16.5697 17.0659C16.5003 17.2334 16.4822 17.4177 16.5175 17.5955C16.5529 17.7733 16.6402 17.9366 16.7684 18.0648C16.8966 18.193 17.0599 18.2803 17.2378 18.3157C17.4156 18.3511 17.5999 18.3329 17.7674 18.2636C17.9349 18.1942 18.078 18.0767 18.1788 17.9259C18.2795 17.7752 18.3333 17.598 18.3333 17.4167C18.333 17.1736 18.2364 16.9406 18.0645 16.7688C17.8926 16.5969 17.6596 16.5002 17.4166 16.5Z" fill="#18162B"/>
<path opacity="0.5" d="M14.8354 18.3333C14.6101 17.743 14.6101 17.0904 14.8354 16.5H7.16475C7.38993 17.0904 7.38993 17.743 7.16475 18.3333H14.8354ZM17.4167 7.33333C17.1038 7.33031 16.7936 7.27325 16.5001 7.16467V14.8353C17.0904 14.6102 17.743 14.6102 18.3334 14.8353V7.16467C18.0399 7.27325 17.7297 7.33031 17.4167 7.33333ZM7.16475 3.66667C7.27333 3.96023 7.33039 4.27035 7.33341 4.58333C7.33039 4.89632 7.27333 5.20644 7.16475 5.5H14.8354C14.7268 5.20644 14.6698 4.89632 14.6667 4.58333C14.6698 4.27035 14.7268 3.96023 14.8354 3.66667H7.16475ZM4.58341 14.6667C4.8964 14.6697 5.20652 14.7267 5.50008 14.8353V7.16467C5.20652 7.27325 4.8964 7.33031 4.58341 7.33333C4.27043 7.33031 3.96031 7.27325 3.66675 7.16467V14.8353C3.96031 14.7267 4.27043 14.6697 4.58341 14.6667Z" fill="#18162B"/>
</svg>
