<svg width="16" height="17" viewBox="0 0 16 17" fill="none" xmlns="http://www.w3.org/2000/svg">
    <path d="M14 14.5L11.1047 11.6047M11.1047 11.6047C11.5999 11.1094 11.9928 10.5214 12.2608 9.87435C12.5289 9.22726 12.6668 8.53372 12.6668 7.83332C12.6668 7.13292 12.5289 6.43937 12.2608 5.79229C11.9928 5.1452 11.5999 4.55724 11.1047 4.06198C10.6094 3.56673 10.0215 3.17387 9.37438 2.90583C8.72729 2.6378 8.03375 2.49985 7.33335 2.49985C6.63295 2.49985 5.9394 2.6378 5.29232 2.90583C4.64523 3.17387 4.05727 3.56673 3.56202 4.06198C2.5618 5.0622 1.99988 6.41879 1.99988 7.83332C1.99988 9.24784 2.5618 10.6044 3.56202 11.6047C4.56224 12.6049 5.91882 13.1668 7.33335 13.1668C8.74787 13.1668 10.1045 12.6049 11.1047 11.6047Z" stroke="#6A6583" stroke-width="1.5" stroke-linecap="round" stroke-linejoin="round"/>
</svg>
